<?xml version="1.0" standalone="no"?>
<!DOCTYPE svg PUBLIC "-//W3C//DTD SVG 20010904//EN"
 "http://www.w3.org/TR/2001/REC-SVG-20010904/DTD/svg10.dtd">
<svg version="1.0" xmlns="http://www.w3.org/2000/svg"
 width="460.000000pt" height="460.000000pt" viewBox="0 0 460.000000 460.000000"
 preserveAspectRatio="xMidYMid meet">
<metadata>
Created by potrace 1.14, written by Peter Selinger 2001-2017
</metadata>
<g transform="translate(0.000000,460.000000) scale(0.100000,-0.100000)"
fill="#000000" stroke="none">
<path d="M0 3084 l0 -1516 22 7 c13 3 39 10 58 15 70 16 276 70 300 79 31 12
107 25 100 18 -5 -5 -46 -18 -185 -56 -16 -5 -55 -16 -85 -24 -30 -9 -90 -26
-132 -38 l-78 -21 0 -183 0 -183 63 -10 c34 -6 76 -9 92 -6 17 2 23 1 15 -3
-8 -3 -21 -12 -28 -20 -7 -7 -20 -13 -28 -13 -8 0 -14 -4 -14 -9 0 -5 26 -2
57 5 32 7 92 21 134 31 41 10 83 25 92 35 22 22 70 28 202 27 61 -1 126 1 145
5 l35 7 -35 -20 c-48 -27 -79 -41 -93 -41 -7 0 -21 -6 -32 -13 -11 -8 -42 -22
-70 -33 -27 -10 -60 -23 -73 -30 -22 -11 -21 -12 12 -17 20 -3 51 -1 71 4 41
12 87 3 64 -12 -8 -5 -12 -9 -9 -9 3 0 41 -7 85 -15 44 -8 95 -15 113 -15 18
0 42 -5 53 -11 12 -6 28 -7 37 -3 14 6 13 8 -8 15 -19 7 -16 7 13 3 27 -4 48
0 71 14 18 10 50 22 71 26 21 4 44 14 50 21 5 8 36 21 69 29 32 9 63 20 70 25
6 5 38 17 71 26 33 10 78 26 101 37 22 10 45 18 51 18 6 0 28 8 49 17 22 9 50
17 64 18 15 0 26 7 28 18 3 15 -1 17 -22 11 -36 -9 -351 37 -331 49 9 5 35 6
58 2 28 -4 37 -3 28 3 -10 7 2 12 43 17 31 4 59 11 62 16 3 5 8 7 12 5 4 -2
13 3 21 11 12 13 9 14 -30 8 -24 -4 -91 -18 -149 -31 -57 -13 -109 -24 -115
-24 -19 0 20 20 60 30 22 6 90 28 150 49 110 40 242 81 256 81 4 0 5 -9 2 -20
-3 -13 0 -20 8 -20 10 -1 8 -4 -3 -11 -10 -5 -18 -17 -18 -24 0 -8 -6 -15 -12
-15 -7 0 -5 -5 5 -11 14 -8 16 -14 6 -25 -9 -12 -9 -13 2 -9 11 4 14 -5 14
-35 1 -30 -3 -39 -13 -35 -7 2 -10 0 -7 -5 3 -6 1 -10 -5 -10 -7 0 -10 -6 -7
-13 4 -12 -26 -41 -44 -42 -13 0 -59 -64 -50 -69 5 -3 18 6 28 20 17 23 20 24
32 10 11 -13 11 -16 -1 -16 -8 0 -20 -11 -26 -24 -6 -15 -23 -27 -41 -31 -17
-4 -33 -11 -36 -16 -4 -5 -15 -9 -26 -9 -10 0 -19 -4 -19 -9 0 -12 -85 -26
-100 -16 -8 5 -8 11 1 21 17 21 1 17 -23 -6 -12 -11 -28 -20 -36 -20 -12 0
-11 4 3 20 10 11 14 20 9 20 -5 0 -14 -8 -21 -19 -6 -10 -25 -21 -41 -24 -16
-3 -55 -18 -86 -33 -45 -21 -54 -29 -45 -40 9 -10 9 -14 0 -14 -19 0 -106 -43
-114 -57 -4 -7 -12 -13 -18 -13 -5 0 -31 -9 -57 -21 -96 -43 -108 -48 -149
-58 -40 -11 -99 -50 -76 -51 11 0 83 26 138 49 11 5 40 14 65 21 25 7 52 15
60 18 41 15 106 30 113 25 9 -6 77 19 77 28 0 4 -6 9 -12 11 -48 16 138 83
199 72 l36 -7 -24 -18 c-13 -10 -19 -19 -12 -19 6 0 14 4 17 8 6 10 114 37
121 30 3 -2 -20 -17 -50 -33 -56 -28 -65 -39 -42 -49 6 -3 2 -3 -10 -1 -12 3
-24 2 -27 -4 -3 -5 -25 -12 -49 -16 -23 -4 -53 -13 -67 -21 -30 -16 -22 -18
14 -4 22 8 26 7 26 -10 0 -18 4 -17 50 10 28 17 56 30 61 30 14 0 172 70 179
78 3 4 21 15 42 24 32 15 37 15 42 2 9 -24 7 -44 -5 -44 -5 0 -7 6 -3 12 4 7
-1 5 -12 -4 -10 -9 -31 -19 -46 -23 -15 -4 -26 -12 -25 -18 1 -6 -14 -15 -33
-22 -57 -18 -107 -43 -87 -44 32 -2 238 97 235 112 -4 25 14 78 32 90 14 10
19 25 19 58 -2 60 17 125 43 148 21 20 21 20 49 -6 20 -20 25 -31 18 -39 -6
-7 -10 -32 -11 -56 0 -31 -7 -49 -24 -67 -13 -13 -21 -27 -19 -31 3 -5 0 -10
-7 -12 -6 -2 -11 -23 -11 -51 1 -45 -16 -75 -35 -63 -15 9 -40 -17 -48 -49 -7
-27 -6 -29 9 -16 10 7 17 10 17 6 0 -4 6 -3 12 1 19 13 53 10 51 -4 -2 -7 2
-12 9 -12 6 0 3 -9 -7 -20 -18 -20 -18 -21 1 -14 17 7 17 6 5 -9 -12 -15 -12
-17 3 -11 9 3 16 3 16 0 0 -11 -54 -55 -67 -56 -7 0 -22 -9 -32 -19 -17 -17
-20 -34 -19 -118 0 -54 4 -120 9 -146 7 -40 5 -58 -16 -115 -25 -68 -40 -102
-56 -135 -7 -12 -3 -33 12 -67 17 -41 20 -61 15 -105 l-6 -55 1500 0 1500 0 0
414 0 414 -130 130 c-71 72 -130 134 -130 139 0 4 -20 28 -45 52 -25 24 -43
47 -40 49 3 3 11 0 17 -6 7 -7 26 -12 44 -12 19 0 34 -6 38 -15 8 -23 32 -18
84 18 70 47 85 56 108 66 57 25 54 -10 54 642 l0 599 -39 0 c-42 0 -53 9 -57
47 -3 29 8 35 57 35 36 -1 39 1 39 27 0 20 -5 28 -17 28 -68 -1 -75 2 -71 28
4 21 1 25 -18 25 -26 0 -38 29 -32 71 3 22 8 24 71 27 l67 3 0 517 0 518 -65
-1 c-50 0 -64 3 -60 13 3 8 5 18 5 23 0 6 4 8 9 4 5 -3 12 -1 16 5 3 5 18 10
33 10 29 1 70 26 59 36 -3 4 -18 -1 -32 -10 -24 -16 -25 -16 -25 8 0 18 -4 24
-15 20 -9 -4 -15 0 -15 10 0 19 -26 22 -34 4 -3 -7 -2 100 1 237 2 138 7 253
10 258 2 4 29 7 59 7 l54 0 0 80 0 80 -929 0 c-609 0 -932 -3 -936 -10 -3 -5
-27 -10 -53 -9 -38 1 -42 2 -22 9 15 5 -44 8 -145 9 -113 0 -165 -3 -155 -9
13 -9 13 -10 0 -11 -10 0 -8 -3 5 -8 16 -7 8 -11 -35 -19 -62 -13 -228 -29
-340 -34 -82 -3 -76 -8 -79 60 l-1 22 -616 0 -616 0 6 -90 c4 -67 2 -90 -7
-90 -7 -1 -47 -3 -89 -6 -63 -4 -78 -3 -78 9 0 7 16 18 37 23 43 11 57 34 19
34 -13 0 -36 4 -50 10 -32 12 -25 40 10 40 13 0 24 4 24 10 0 13 -32 28 -47
23 -8 -3 -13 4 -13 16 0 21 -3 21 -245 21 l-245 0 0 -1516z m470 1495 c0 -5
-9 -9 -20 -9 -11 0 -20 4 -20 8 0 4 9 8 20 9 11 1 20 -2 20 -8z m0 -79 c0 -5
-9 -10 -20 -10 -11 0 -20 5 -20 10 0 6 9 10 20 10 11 0 20 -4 20 -10z m5 -80
c-3 -5 -13 -10 -21 -10 -8 0 -14 5 -14 10 0 6 9 10 21 10 11 0 17 -4 14 -10z
m3950 -265 c-4 -148 -7 -287 -6 -307 0 -33 -2 -38 -22 -36 -12 1 -32 -2 -44
-6 -12 -4 -24 -2 -28 4 -4 7 -4 146 0 310 l8 299 31 3 c76 9 70 36 61 -267z
m-1074 166 c-9 -6 -10 -11 -2 -15 6 -4 11 -30 11 -57 0 -50 0 -51 -28 -44 -26
5 -28 4 -29 -30 -1 -30 3 -35 22 -35 21 0 35 -17 35 -41 0 -5 -7 -9 -15 -9 -8
0 -15 7 -15 15 0 8 -4 15 -10 15 -5 0 -10 -9 -10 -20 0 -14 7 -20 24 -20 31 0
36 -16 35 -108 -1 -79 -15 -193 -18 -139 -1 23 -4 27 -21 22 -15 -5 -18 -2
-15 14 3 14 -2 21 -13 23 -9 0 -23 2 -29 2 -17 2 -112 99 -107 108 3 5 -1 11
-10 14 -9 3 -12 12 -9 21 4 10 2 14 -4 10 -6 -4 -23 -3 -37 3 -32 12 -44 53
-22 75 18 19 21 67 5 96 -7 15 -7 24 1 34 7 8 8 19 4 26 -5 9 3 10 31 5 23 -5
35 -4 31 3 -9 14 31 24 71 16 26 -5 33 -3 27 6 -5 9 -1 11 14 7 12 -4 25 -2
28 3 3 5 20 9 37 9 22 0 28 -3 18 -9z m-1378 -68 c-7 -2 -19 -2 -25 0 -7 3 -2
5 12 5 14 0 19 -2 13 -5z m1104 -85 c-3 -8 -6 -5 -6 6 -1 11 2 17 5 13 3 -3 4
-12 1 -19z m911 -105 l-3 -108 -149 -8 c-155 -9 -179 -6 -171 15 8 20 101 73
165 93 81 27 140 65 140 92 0 13 5 23 10 23 7 0 10 -38 8 -107z m-1702 -179
c-3 -8 0 -11 10 -7 9 3 14 -2 14 -15 0 -12 4 -23 9 -26 5 -4 7 4 3 16 -3 13
-1 19 5 15 6 -4 13 -20 17 -37 3 -18 10 -29 16 -25 10 6 24 -21 36 -70 5 -20
2 -25 -12 -26 -16 0 -15 -2 4 -11 13 -7 32 -30 42 -53 10 -23 27 -48 36 -56
10 -8 30 -42 45 -75 16 -34 34 -68 41 -75 8 -8 22 -40 33 -71 10 -32 23 -58
27 -58 4 0 8 -10 8 -22 1 -26 24 -61 33 -51 4 3 7 -4 7 -16 0 -14 20 -42 54
-74 53 -51 96 -123 96 -159 0 -10 7 -21 16 -25 15 -5 16 -18 11 -94 -7 -87 -6
-88 20 -109 34 -27 85 -24 90 5 2 11 6 63 8 115 7 126 11 145 30 130 12 -10
15 -9 15 5 0 11 5 15 15 11 9 -3 42 22 91 70 86 86 114 100 156 83 15 -6 28
-15 28 -19 0 -3 11 -13 25 -20 14 -7 25 -17 25 -22 0 -5 -11 -1 -25 8 -53 34
-158 -24 -172 -95 l-6 -33 32 17 c19 9 37 29 43 46 5 16 13 29 17 29 11 0 33
-29 55 -72 10 -21 23 -35 28 -32 4 3 6 9 3 14 -3 5 -1 11 5 15 6 3 13 -1 16
-9 3 -9 10 -16 14 -16 14 0 17 48 4 79 -17 41 -5 39 25 -4 20 -30 23 -43 18
-94 -2 -32 -9 -66 -15 -77 -6 -10 -29 -58 -51 -106 -59 -127 -101 -181 -161
-207 -43 -19 -55 -20 -95 -10 -25 6 -45 16 -46 23 -1 11 -28 -99 -35 -144 -13
-78 -18 -96 -30 -103 -8 -4 -14 -13 -14 -20 0 -7 -9 -23 -20 -37 l-20 -25 10
29 c14 38 10 40 -17 10 -12 -13 -17 -24 -12 -24 6 0 8 -4 4 -10 -3 -5 -12 -7
-20 -4 -15 6 -35 -24 -28 -43 3 -7 -2 -13 -11 -13 -9 0 -16 -3 -16 -8 0 -10
-94 -112 -103 -112 -4 0 -21 -14 -37 -30 -17 -17 -30 -27 -30 -24 0 4 -10 -2
-22 -13 -24 -22 -52 -37 -154 -86 -32 -16 -67 -33 -76 -38 -29 -15 -220 -77
-260 -84 -21 -4 -38 -11 -38 -15 0 -4 -16 -6 -35 -4 -36 2 -82 -25 -55 -34 7
-3 16 1 20 8 6 9 9 9 15 0 11 -19 -3 -24 -62 -25 -36 -1 -58 -6 -61 -14 -6
-19 -51 -68 -52 -56 0 6 16 36 34 67 32 53 33 57 16 63 -33 10 -78 78 -101
151 -12 38 -42 108 -66 157 -95 188 -153 421 -154 617 -1 107 -16 185 -51 259
-39 83 -40 137 -3 169 14 12 39 22 54 22 36 0 81 38 78 68 -1 19 -7 22 -42 22
-22 0 -56 -8 -75 -19 l-35 -18 7 109 c4 60 10 124 14 141 11 54 53 126 97 169
49 47 190 116 277 135 14 3 30 9 35 13 6 4 45 15 88 25 43 10 80 22 83 27 3 4
20 8 39 8 19 0 37 5 40 10 4 6 14 10 23 9 32 -3 42 1 42 17 0 8 5 12 11 9 6
-4 8 -13 5 -21z m1074 -94 c0 -5 -2 -10 -4 -10 -3 0 -8 5 -11 10 -3 6 -1 10 4
10 6 0 11 -4 11 -10z m-2690 -270 c0 -27 -4 -50 -10 -50 -5 0 -10 15 -10 34 0
19 -3 41 -6 50 -4 11 -1 16 10 16 13 0 16 -11 16 -50z m3830 -236 c0 -15 -24
-17 -55 -4 -19 7 -19 8 5 18 29 11 50 5 50 -14z m-1401 -928 c-3 -3 -16 -2
-29 1 -22 6 -22 7 -4 14 18 6 43 -5 33 -15z m14 -23 c-7 -2 -19 -2 -25 0 -7 3
-2 5 12 5 14 0 19 -2 13 -5z m71 -29 c9 -3 13 -10 10 -15 -3 -5 0 -9 5 -9 6 0
11 -7 11 -15 0 -8 8 -15 17 -15 9 0 14 -3 10 -6 -3 -3 3 -21 14 -40 10 -19 14
-34 9 -34 -6 0 -13 8 -17 18 -3 9 -17 27 -30 39 -14 12 -22 27 -18 32 3 6 1
11 -4 11 -6 0 -20 9 -31 20 -21 21 -10 27 24 14z m-151 -11 c-7 -2 -19 -2 -25
0 -7 3 -2 5 12 5 14 0 19 -2 13 -5z m102 -53 c3 -5 0 -10 -7 -11 -7 -1 -2 -5
12 -9 l25 -8 -28 -1 c-35 -1 -67 25 -39 32 28 8 31 7 37 -3z m-178 -26 c-3 -3
-12 -4 -19 -1 -8 3 -5 6 6 6 11 1 17 -2 13 -5z m21 -21 c-10 -2 -26 -2 -35 0
-10 3 -2 5 17 5 19 0 27 -2 18 -5z m212 -2 c0 -5 -6 -12 -12 -14 -7 -3 -4 -6
7 -6 27 -1 66 -49 64 -77 0 -4 5 -10 12 -15 8 -4 10 -11 6 -16 -8 -7 -87 74
-87 90 0 4 -7 7 -16 7 -8 0 -13 4 -9 9 3 6 -3 14 -12 20 -15 9 -13 10 15 11
17 0 32 -4 32 -9z m-110 -31 c14 -11 31 -20 38 -20 6 0 12 -6 12 -13 0 -8 11
-20 25 -27 27 -14 33 -30 13 -30 -7 -1 -2 -7 12 -15 14 -8 21 -14 16 -15 -5 0
-3 -7 4 -15 10 -12 10 -15 -1 -15 -8 0 -5 -6 7 -15 20 -15 16 -19 -10 -9 -9 3
-16 12 -16 20 0 8 -5 14 -11 14 -6 0 -9 7 -5 15 3 9 0 15 -9 15 -8 0 -15 5
-15 11 0 15 -20 33 -62 52 -21 10 -38 22 -38 28 0 6 -3 8 -7 6 -5 -3 -14 1
-20 8 -10 11 -8 15 10 18 12 2 24 5 27 5 3 1 16 -7 30 -18z m210 -22 c22 -34
31 -58 20 -58 -6 0 -10 6 -10 14 0 7 -11 25 -25 40 -13 14 -19 26 -12 26 7 0
19 -10 27 -22z m-10 -98 c0 -5 -4 -10 -9 -10 -6 0 -13 5 -16 10 -3 6 1 10 9
10 9 0 16 -4 16 -10z m-5 -30 c3 -5 1 -10 -4 -10 -6 0 -11 5 -11 10 0 6 2 10
4 10 3 0 8 -4 11 -10z m-548 -73 c0 -9 -11 -12 -31 -10 -28 2 -29 2 -6 -5 23
-8 22 -9 -20 -20 -49 -12 -67 -8 -29 7 13 5 17 10 9 11 -22 1 30 29 56 30 11
0 21 -6 21 -13z m93 -17 c0 -5 3 -10 8 -9 14 2 52 -13 52 -21 0 -5 -15 -12
-32 -16 -29 -6 -31 -8 -13 -15 19 -8 19 -8 -2 -15 -13 -3 -23 -12 -23 -19 0
-7 -12 -18 -27 -24 l-28 -11 30 6 c23 4 27 3 18 -6 -13 -14 -73 -4 -73 12 0 6
-6 8 -14 5 -23 -9 -27 21 -5 37 20 13 20 15 2 25 -12 7 -14 10 -4 11 8 0 12 3
8 6 -8 9 -48 -6 -42 -16 3 -4 -2 -11 -11 -14 -8 -3 -12 -2 -9 4 3 6 -1 10 -10
10 -9 0 -14 -4 -10 -9 10 -17 -15 -23 -30 -8 -12 13 -7 17 42 32 31 10 69 18
85 17 17 0 31 5 35 14 6 16 53 20 53 4z m434 -41 c-3 -5 -10 -7 -15 -3 -5 3
-7 10 -3 15 3 5 10 7 15 3 5 -3 7 -10 3 -15z m-299 -111 c8 -28 13 -54 10 -58
-3 -4 5 -10 18 -14 31 -8 57 -6 27 3 -23 7 -23 8 12 15 28 5 42 3 58 -11 19
-16 19 -18 3 -25 -14 -5 -11 -7 10 -7 38 -1 34 -19 -5 -24 -32 -4 -32 -4 5 -5
20 -1 37 -7 37 -12 0 -6 -17 -8 -42 -6 l-43 5 48 -11 c26 -6 47 -16 47 -21 0
-5 -8 -6 -17 -3 -16 5 -15 4 1 -9 17 -13 15 -14 -20 -9 -29 4 -35 3 -24 -5 8
-6 23 -11 33 -11 9 0 17 -4 17 -8 0 -17 -97 4 -120 26 -13 12 -30 22 -37 22
-7 0 -13 5 -13 10 0 6 -7 10 -16 10 -9 0 -12 5 -8 12 5 8 -7 10 -44 5 -31 -4
-52 -2 -52 3 0 6 6 10 13 11 10 0 10 2 0 6 -27 10 -12 25 20 20 32 -5 32 -5 5
6 -28 11 -38 27 -17 27 5 0 7 4 4 10 -3 5 3 15 15 22 11 7 20 18 20 25 0 7 8
13 18 14 9 0 12 3 6 5 -7 3 -10 14 -7 24 8 30 21 15 38 -42z m-371 7 c17 -13
17 -15 3 -20 -8 -4 -22 -8 -31 -9 -8 -1 -19 -5 -22 -9 -12 -12 15 -8 53 8 20
8 38 14 40 12 2 -2 -20 -14 -48 -26 -29 -12 -50 -24 -46 -27 3 -3 33 6 66 21
60 27 61 27 88 9 16 -10 31 -17 36 -16 17 5 5 -9 -15 -18 -20 -8 -21 -9 -4 -9
20 -1 20 -1 1 -15 -22 -16 -39 -11 -29 7 4 7 3 8 -2 4 -5 -5 -9 -14 -9 -20 0
-6 -15 -15 -34 -19 -18 -5 -31 -11 -29 -13 2 -3 20 0 39 5 56 16 57 10 4 -14
-46 -21 -51 -22 -66 -7 -15 15 -15 17 10 28 22 10 23 12 6 13 l-20 1 20 16 20
16 -20 -8 c-11 -4 -31 -9 -45 -12 -23 -3 -22 -2 5 11 43 20 27 19 -38 -3 -32
-11 -57 -16 -57 -10 0 5 6 9 13 10 9 0 9 2 -1 6 -10 4 -8 9 7 20 12 8 19 19
16 24 -4 5 4 13 17 18 13 6 17 10 8 11 -9 0 -6 6 10 15 31 18 31 18 54 0z
m-2219 -25 c3 -5 -1 -10 -10 -10 -9 0 -13 5 -10 10 3 6 8 10 10 10 2 0 7 -4
10 -10z m2665 -20 c0 -5 -10 -10 -22 -9 -22 0 -22 1 -3 9 11 5 21 9 23 9 1 1
2 -3 2 -9z m-823 -25 c91 -48 103 -72 93 -170 -6 -58 -52 -33 -98 52 -27 51
-57 143 -46 143 1 0 25 -11 51 -25z m-732 -45 c-38 -16 -77 -29 -85 -30 -8 0
-24 -7 -35 -16 -18 -13 -17 -14 15 -9 l35 5 -30 -10 c-16 -5 -36 -7 -44 -5
-24 9 -111 -18 -138 -43 -14 -12 -38 -25 -53 -29 -16 -3 -31 -11 -34 -19 -3
-8 -14 -14 -25 -14 -11 0 -23 -4 -26 -10 -3 -5 -11 -10 -17 -10 -7 0 -6 5 2
15 6 8 9 19 5 26 -6 8 -2 8 14 0 15 -8 25 -9 34 -1 69 59 115 83 223 116 66
20 137 42 159 50 72 23 72 14 0 -16z m1045 -5 c0 -9 -6 -12 -16 -8 -13 5 -13
7 -2 14 17 11 18 11 18 -6z m45 -5 c-27 -12 -43 -12 -25 0 8 5 22 9 30 9 10 0
8 -3 -5 -9z m285 -62 c0 -4 10 -8 23 -9 13 -1 3 -7 -26 -16 -65 -20 -55 -26
13 -8 48 13 56 13 63 0 4 -8 12 -15 18 -15 5 0 26 -16 46 -35 20 -19 40 -35
45 -35 4 0 8 -4 8 -9 0 -6 -17 -12 -37 -14 -35 -3 -34 -4 10 -5 46 -2 64 -16
30 -25 -14 -4 -12 -5 5 -6 12 0 22 -6 22 -12 0 -7 -12 -10 -30 -7 -16 3 -30 1
-30 -4 0 -4 14 -8 32 -8 30 0 31 -1 12 -16 -19 -15 -18 -15 4 -11 12 3 22 1
22 -4 0 -5 -24 -9 -54 -9 -30 0 -61 -3 -70 -6 -11 -4 -16 -1 -16 10 0 9 -7 16
-15 16 -8 0 -15 7 -15 16 0 8 -4 13 -9 9 -6 -3 -13 0 -18 7 -4 7 -21 21 -38
30 -16 10 -29 23 -27 29 2 7 -4 9 -12 6 -9 -4 -18 -2 -21 3 -4 6 2 10 12 10
10 0 25 5 33 10 11 7 2 9 -30 5 -44 -5 -44 -5 -10 5 56 17 63 20 58 25 -2 3
-30 -2 -61 -10 -35 -9 -65 -11 -79 -6 -22 8 -22 8 7 24 17 8 39 25 50 37 28
31 85 50 85 28z m-1424 -18 c-22 -11 -51 -20 -64 -20 -32 0 -20 13 16 18 15 2
31 7 37 13 5 5 18 9 30 9 14 -1 9 -6 -19 -20z m-301 -2 c-3 -7 -16 -18 -30
-24 -23 -11 -24 -11 -8 12 16 25 46 34 38 12z m188 5 c-7 -2 -19 -2 -25 0 -7
3 -2 5 12 5 14 0 19 -2 13 -5z m-590 -16 c4 3 43 -3 85 -13 l77 -17 -60 -28
c-33 -16 -51 -29 -40 -29 18 -1 19 -1 3 -11 -22 -12 -23 -29 -4 -29 8 0 18 -5
22 -11 4 -8 -15 -8 -67 -3 -41 5 -108 7 -149 6 -80 -3 -405 37 -393 48 14 13
196 60 256 66 31 4 57 10 57 14 0 5 25 8 56 9 31 0 58 2 61 4 2 2 23 1 46 -3
23 -5 45 -6 50 -3z m1398 -3 c11 -13 8 -19 -21 -42 -19 -15 -38 -27 -41 -27
-4 0 -11 -3 -15 -7 -4 -5 -14 -8 -22 -8 -11 0 -8 7 9 24 13 13 32 35 42 50 21
30 30 32 48 10z m984 -24 c3 -5 -2 -10 -11 -10 -16 0 -16 -1 2 -15 10 -8 14
-15 8 -15 -6 0 -21 11 -34 25 l-23 25 26 0 c14 0 29 -4 32 -10z m-2105 -8 c0
-4 -18 -25 -40 -46 -45 -42 -51 -40 -17 7 29 43 57 61 57 39z m868 1 c18 -4
20 -8 10 -14 -10 -7 -8 -9 7 -10 l20 0 -20 -8 c-11 -5 -26 -5 -34 -1 -8 4 -27
4 -43 0 -31 -10 -36 0 -12 24 17 17 35 19 72 9z m270 -55 c-6 -17 -87 -38
-143 -36 l-50 1 60 7 c33 4 76 15 95 23 43 20 43 20 38 5z m-344 -19 c-4 -8 0
-9 15 -4 12 4 21 2 21 -4 0 -6 -6 -11 -12 -11 -9 0 -8 -4 2 -11 12 -8 12 -10
-5 -8 -11 1 -22 0 -25 -1 -3 -1 -13 -3 -22 -5 -27 -5 -23 34 5 45 29 12 29 12
21 -1z m496 4 c-1 -5 -7 -19 -15 -33 -17 -30 -19 -44 -5 -35 6 3 10 1 10 -4 0
-6 -4 -11 -10 -11 -5 0 -20 -12 -33 -26 -22 -23 -25 -24 -38 -8 -11 13 -11 18
-1 21 6 3 12 9 12 15 0 14 60 88 71 88 5 0 9 -3 9 -7z m-190 -33 c0 -5 -19 -9
-42 -9 -40 1 -41 2 -13 9 44 11 55 11 55 0z m-111 -14 c-2 -2 -24 -6 -48 -9
-29 -4 -40 -2 -30 4 13 8 88 14 78 5z m331 -35 c0 -5 -8 -11 -17 -14 -10 -2
-27 -8 -38 -11 -11 -4 -4 2 15 13 41 24 40 23 40 12z m-524 -26 c-17 -13 -18
-15 -3 -15 9 0 17 -4 17 -8 0 -5 24 -7 53 -4 55 4 56 -7 1 -26 -19 -6 -37 -6
-47 0 -10 5 -22 6 -27 3 -6 -3 -10 1 -10 9 0 18 -32 21 -60 6 -16 -9 -19 -8
-13 7 12 34 26 43 67 43 38 -1 40 -2 22 -15z m514 -5 c0 -5 -5 -10 -11 -10 -5
0 -7 5 -4 10 3 6 8 10 11 10 2 0 4 -4 4 -10z m110 -10 c0 -5 -6 -10 -14 -10
-8 0 -23 -3 -33 -6 -16 -6 -16 -5 2 9 23 19 45 22 45 7z m650 -10 c0 -5 -15
-11 -32 -11 l-33 -1 30 -8 30 -7 -27 -7 c-29 -8 -52 0 -43 15 4 5 -1 9 -9 9
-8 0 -18 5 -21 10 -4 6 15 10 49 10 31 0 56 -4 56 -10z m-660 -20 c-8 -5 -19
-10 -25 -10 -5 0 -3 5 5 10 8 5 20 10 25 10 6 0 3 -5 -5 -10z m-203 -33 c13 8
23 11 23 5 0 -5 -7 -13 -16 -16 -9 -4 -14 -9 -11 -12 3 -3 19 2 36 11 32 16
40 12 19 -8 -7 -7 -26 -12 -42 -12 -33 1 -54 -26 -61 -75 -3 -27 -1 -31 13
-25 9 4 26 9 37 12 18 4 18 3 3 -7 -24 -15 -91 -23 -83 -10 3 5 0 7 -8 4 -8
-3 -18 6 -25 21 -14 30 -4 61 35 110 l28 34 14 -23 c14 -23 16 -23 38 -9z
m-560 11 c4 -7 8 -17 9 -23 2 -5 5 -24 9 -40 6 -28 4 -31 -27 -43 -47 -16 -57
-15 -32 6 27 23 47 69 32 74 -13 5 -20 38 -8 38 5 0 12 -6 17 -12z m787 -25
c-17 -17 -18 -17 -11 0 4 10 7 24 7 30 0 8 3 8 11 0 9 -9 7 -16 -7 -30z m626
7 c0 -5 -6 -10 -14 -10 -8 0 -18 5 -21 10 -3 6 3 10 14 10 12 0 21 -4 21 -10z
m-552 -28 c16 -15 35 -26 43 -24 27 9 4 -6 -35 -22 -34 -14 -37 -14 -32 0 5
12 1 14 -16 8 -17 -5 -20 -3 -14 11 5 13 2 16 -10 11 -14 -5 -15 -4 -4 9 7 8
9 15 4 15 -10 0 17 20 28 20 4 0 20 -13 36 -28z m-2123 -12 c-27 -9 -57 -19
-65 -22 -16 -7 -57 -16 -105 -24 -47 -8 70 46 130 60 73 18 104 7 40 -14z
m1245 26 c0 -2 -7 -9 -15 -16 -13 -11 -14 -10 -9 4 5 14 24 23 24 12z m1437
-12 c-3 -3 -12 -4 -19 -1 -8 3 -5 6 6 6 11 1 17 -2 13 -5z m1353 -26 c0 -5 -4
-8 -10 -8 -5 0 -10 5 -10 10 0 6 -7 10 -16 10 -8 0 -12 4 -9 10 6 10 45 -9 45
-22z m-2590 -1 c0 -7 -4 -17 -9 -22 -5 -6 -12 -21 -14 -35 -3 -15 -5 -9 -4 15
0 22 2 43 4 48 7 12 23 8 23 -6z m510 9 c0 -2 -7 -7 -16 -10 -8 -3 -12 -2 -9
4 6 10 25 14 25 6z m-495 -36 c3 -5 -1 -10 -10 -10 -9 0 -13 5 -10 10 3 6 8
10 10 10 2 0 7 -4 10 -10z m535 -25 c-6 -15 -13 -25 -17 -21 -3 3 0 17 7 31
17 32 24 26 10 -10z m150 15 c0 -5 -5 -10 -11 -10 -5 0 -7 5 -4 10 3 6 8 10
11 10 2 0 4 -4 4 -10z m37 4 c-3 -3 -12 -4 -19 -1 -8 3 -5 6 6 6 11 1 17 -2
13 -5z m-382 -14 c-3 -5 -11 -10 -16 -10 -6 0 -7 5 -4 10 3 6 11 10 16 10 6 0
7 -4 4 -10z m415 1 c0 -5 -12 -11 -27 -14 -26 -5 -26 -4 -8 9 22 16 35 18 35
5z m-170 -18 c14 -9 27 -18 30 -20 2 -2 -2 -9 -10 -14 -11 -8 -8 -10 13 -6 38
6 34 -6 -8 -19 -19 -6 -35 -7 -35 -3 0 5 -6 9 -14 9 -20 0 -27 37 -8 45 14 5
14 7 2 15 -8 6 -10 10 -5 10 6 0 22 -8 35 -17z m170 -13 c0 -5 -2 -10 -4 -10
-3 0 -8 5 -11 10 -3 6 -1 10 4 10 6 0 11 -4 11 -10z m1493 -7 c-7 -2 -21 -2
-30 0 -10 3 -4 5 12 5 17 0 24 -2 18 -5z m63 -15 c3 -5 4 -12 1 -14 -6 -6 -47
18 -47 27 0 10 39 -1 46 -13z m-1636 -28 c0 -5 -5 -10 -11 -10 -5 0 -7 5 -4
10 3 6 8 10 11 10 2 0 4 -4 4 -10z m1415 0 c3 -5 2 -10 -4 -10 -5 0 -13 5 -16
10 -3 6 -2 10 4 10 5 0 13 -4 16 -10z m-2292 -17 c-3 -7 -21 -15 -41 -19 -21
-3 -50 -15 -65 -26 -21 -15 -32 -17 -40 -9 -8 8 -6 11 6 11 9 0 17 4 17 9 0 5
17 17 38 27 43 22 92 25 85 7z m712 -10 c11 -6 19 -16 18 -22 -2 -6 4 -8 14
-4 12 5 15 2 10 -10 -5 -13 0 -17 21 -18 24 0 23 -2 -12 -15 -40 -14 -62 -10
-36 6 20 13 4 13 -20 0 -25 -13 -36 28 -12 46 15 12 15 12 -5 7 -25 -6 -26 -4
-17 22 4 9 10 13 13 8 3 -4 15 -13 26 -20z m1705 -29 c0 -9 -37 15 -51 33 -10
12 -5 11 19 -6 17 -12 32 -24 32 -27z m-1545 26 c-3 -5 -14 -10 -23 -10 -15 0
-15 2 -2 10 20 13 33 13 25 0z m-881 -35 c-4 -8 -8 -15 -10 -15 -2 0 -4 7 -4
15 0 8 4 15 10 15 5 0 7 -7 4 -15z m802 -50 c-16 -9 -34 -14 -40 -11 -6 2 0 8
14 14 39 16 59 14 26 -3z m1941 9 c-3 -3 -12 -4 -19 -1 -8 3 -5 6 6 6 11 1 17
-2 13 -5z m-1887 -14 c0 -5 -3 -10 -7 -10 -5 0 -19 -3 -33 -6 l-25 -5 25 15
c30 18 40 20 40 6z m-663 -52 c-3 -8 -6 -5 -6 6 -1 11 2 17 5 13 3 -3 4 -12 1
-19z m149 -109 c1 -22 -2 -29 -12 -25 -8 3 -14 1 -14 -4 0 -6 5 -10 12 -10 6
0 5 -7 -5 -18 -13 -15 -14 -21 -4 -32 7 -8 8 -10 1 -7 -21 12 -38 -65 -22 -98
9 -20 9 -20 -7 0 -8 11 -13 25 -11 32 3 6 1 13 -4 15 -10 4 -31 88 -21 88 3 0
12 15 20 33 19 44 31 57 50 57 11 0 17 -9 17 -31z m-221 -28 c-3 -6 -11 -8
-17 -5 -6 4 -5 9 3 15 16 10 23 4 14 -10z m1613 -25 c-10 -7 -15 -16 -11 -19
3 -4 1 -7 -5 -7 -7 0 -12 4 -12 8 0 12 22 32 35 32 5 0 2 -7 -7 -14z m-1318
-10 c0 -3 -4 -8 -10 -11 -5 -3 -10 -1 -10 4 0 6 5 11 10 11 6 0 10 -2 10 -4z
m130 -6 c0 -5 -5 -10 -11 -10 -5 0 -7 5 -4 10 3 6 8 10 11 10 2 0 4 -4 4 -10z
m240 -10 c0 -5 -5 -10 -11 -10 -6 0 -19 -10 -30 -22 -18 -22 -18 -22 -19 -3 0
11 10 25 23 31 29 15 37 16 37 4z m-360 -11 c0 -5 -5 -9 -11 -9 -5 0 -8 -4 -5
-9 4 -5 1 -22 -5 -38 l-10 -28 -19 25 c-24 30 -26 20 -5 -20 9 -17 11 -30 6
-30 -5 0 -11 8 -14 18 -2 9 -7 24 -11 32 -3 8 -2 21 3 29 8 13 12 13 28 1 17
-14 17 -14 0 6 -9 11 -15 23 -12 26 9 9 55 6 55 -3z m145 1 c4 -6 -6 -10 -22
-10 -22 0 -25 2 -13 10 19 12 27 12 35 0z m25 -19 c0 -5 -7 -12 -16 -15 -8 -3
-12 -10 -9 -16 4 -6 -5 -10 -22 -9 -25 0 -26 1 -8 9 19 8 19 9 1 9 -34 1 0 23
47 30 4 0 7 -3 7 -8z m120 -11 c0 -6 -7 -13 -15 -16 -22 -9 -18 -23 8 -34 16
-6 17 -9 5 -9 -9 -1 -24 9 -33 21 -14 21 -14 24 2 35 21 16 33 17 33 3z m87
-16 c-3 -3 -12 -4 -19 -1 -8 3 -5 6 6 6 11 1 17 -2 13 -5z m-43 -13 c3 -5 -6
-8 -19 -8 -14 0 -25 3 -25 8 0 5 9 9 19 9 11 0 22 -4 25 -9z m606 -1 c0 -5 -2
-10 -4 -10 -3 0 -8 5 -11 10 -3 6 -1 10 4 10 6 0 11 -4 11 -10z m-876 -22 c-3
-4 2 -8 11 -8 13 0 14 -2 3 -14 -9 -10 -17 -11 -25 -4 -18 14 -16 35 2 35 8 0
12 -4 9 -9z m116 -1 c0 -16 -47 -40 -61 -31 -12 7 28 44 48 44 7 0 13 -6 13
-13z m620 -21 c0 -2 -7 -7 -16 -10 -8 -3 -12 -2 -9 4 6 10 25 14 25 6z m-853
-33 c13 -28 9 -56 -7 -58 -9 -2 -16 5 -16 14 0 9 -4 26 -8 39 -9 27 19 32 31
5z m241 11 c24 -7 31 -24 9 -24 -15 0 -57 29 -42 30 6 0 20 -3 33 -6z m-147
-39 c15 -33 15 -36 0 -45 -9 -6 -11 -10 -3 -10 14 0 17 -30 2 -30 -5 0 -18 7
-28 16 -22 19 -18 69 4 60 17 -6 17 -1 4 25 -6 10 -7 19 -3 19 4 -1 15 -16 24
-35z m19 7 c0 -15 -2 -15 -10 -2 -13 20 -13 33 0 25 6 -3 10 -14 10 -23z m650
8 c-8 -5 -19 -10 -25 -10 -5 0 -3 5 5 10 8 5 20 10 25 10 6 0 3 -5 -5 -10z
m-329 -38 c-13 -2 -27 0 -32 5 -6 6 3 7 23 4 28 -4 29 -6 9 -9z m82 11 c-7 -2
-21 -2 -30 0 -10 3 -4 5 12 5 17 0 24 -2 18 -5z m-4 -24 c5 7 14 10 20 7 8 -5
4 -14 -11 -27 l-23 -20 25 12 c22 11 23 10 13 -3 -7 -8 -10 -18 -6 -21 3 -4 1
-7 -5 -7 -7 0 -11 -3 -11 -7 1 -5 1 -17 0 -27 -1 -19 -2 -19 -21 2 -12 12 -27
22 -34 22 -8 0 -21 11 -30 25 -15 23 -45 37 -31 15 3 -5 2 -10 -3 -10 -5 0
-12 9 -15 20 -4 17 0 20 34 18 21 -1 42 1 45 5 3 3 15 0 25 -6 16 -10 21 -9
28 2z m-688 -13 c5 3 18 2 30 -1 16 -5 18 -10 8 -21 -14 -17 -33 -19 -23 -2 5
7 -4 3 -19 -9 -16 -12 -41 -24 -56 -28 -32 -7 -44 -32 -29 -60 7 -11 7 -25 -1
-42 -6 -13 -7 -22 -3 -19 5 3 9 -9 10 -26 l1 -31 -25 36 c-24 37 -31 73 -15
79 13 4 16 28 7 60 -6 20 -3 31 12 46 11 11 22 19 24 16 2 -2 17 0 34 5 16 4
31 4 32 -1 2 -4 8 -6 13 -2z m199 -42 c0 -8 -4 -14 -10 -14 -5 0 -10 9 -10 21
0 11 5 17 10 14 6 -3 10 -13 10 -21z m640 -9 c0 -8 -4 -15 -10 -15 -5 0 -7 7
-4 15 4 8 8 15 10 15 2 0 4 -7 4 -15z m-572 -37 c-5 -15 -23 -11 -26 6 -2 11
2 14 13 10 9 -4 14 -11 13 -16z m-198 -26 c-12 -14 -39 -34 -63 -44 -40 -18
-42 -18 -54 -1 -18 23 -12 35 23 51 16 7 35 16 43 21 8 4 27 5 42 3 l29 -4
-20 -26z m467 32 c-3 -3 -12 -4 -19 -1 -8 3 -5 6 6 6 11 1 17 -2 13 -5z m10
-20 c-3 -3 -12 -4 -19 -1 -8 3 -5 6 6 6 11 1 17 -2 13 -5z m-452 -14 c-3 -5
-12 -10 -18 -10 -7 0 -6 4 3 10 19 12 23 12 15 0z m98 -4 c7 -16 -1 -26 -20
-26 -7 0 -13 9 -13 20 0 23 25 27 33 6z m397 -36 c6 -11 8 -20 6 -20 -3 0 -10
9 -16 20 -6 11 -8 20 -6 20 3 0 10 -9 16 -20z m25 10 c3 -5 1 -10 -4 -10 -6 0
-11 5 -11 10 0 6 2 10 4 10 3 0 8 -4 11 -10z m-355 -25 c0 -8 -9 -15 -20 -15
-19 0 -59 -18 -70 -31 -6 -8 -53 -24 -62 -21 -5 1 -8 -2 -8 -7 0 -9 -43 -24
-70 -25 -8 -1 -15 -6 -15 -13 0 -6 -3 -15 -8 -19 -4 -4 -4 -24 -1 -43 8 -45
-2 -36 -32 28 -23 50 -19 65 9 36 13 -13 16 -13 21 1 8 21 -4 40 -14 24 -14
-23 -29 -2 -17 24 7 15 14 20 19 13 5 -8 13 -8 32 1 19 8 26 8 30 -1 2 -7 5
-4 5 5 1 25 31 37 85 34 26 -1 57 3 69 10 31 17 47 17 47 -1z m-439 -168 c-8
-8 -11 -7 -11 4 0 20 13 34 18 19 3 -7 -1 -17 -7 -23z m282 9 c3 10 3 3 2 -16
-2 -19 -4 -42 -4 -52 -1 -11 -7 -15 -20 -11 -22 6 -35 29 -20 38 5 4 6 11 3
17 -4 7 -2 8 4 4 7 -4 12 -3 12 3 0 5 -5 13 -10 16 -6 4 -7 11 -4 17 4 6 12 1
19 -13 12 -21 13 -22 18 -3z m-306 -58 c-3 -8 -6 -5 -6 6 -1 11 2 17 5 13 3
-3 4 -12 1 -19z"/>
<path d="M3315 4309 c-4 -6 -5 -12 -2 -15 2 -3 7 2 10 11 7 17 1 20 -8 4z"/>
<path d="M3111 4244 c0 -11 3 -14 6 -6 3 7 2 16 -1 19 -3 4 -6 -2 -5 -13z"/>
<path d="M3145 4089 c-9 -27 -5 -29 38 -22 33 5 53 23 26 23 -5 0 -7 5 -4 10
4 6 -6 10 -24 10 -21 0 -32 -6 -36 -21z"/>
<path d="M1921 3406 c-8 -9 -16 -14 -19 -12 -2 3 -11 -1 -18 -9 -16 -16 -19
-61 -4 -70 6 -3 10 -1 10 5 0 7 6 10 14 7 7 -3 19 0 25 6 8 8 11 8 11 -2 0 -7
5 -9 12 -5 7 4 21 9 32 10 12 1 41 10 66 19 52 20 152 15 216 -10 48 -19 114
-54 134 -70 17 -14 70 -26 70 -15 0 9 -49 52 -80 69 -144 84 -144 84 -305 89
-131 3 -153 2 -164 -12z"/>
<path d="M2095 3263 c-34 -5 -85 -49 -85 -73 0 -9 -6 -25 -14 -35 -11 -16 -11
-21 0 -32 17 -17 24 -16 46 4 23 20 24 5 1 -26 -16 -24 -16 -24 13 -17 16 4
29 8 30 9 0 1 5 17 10 36 10 38 34 54 34 23 0 -10 9 -27 20 -37 24 -21 60 -14
90 18 20 21 22 21 34 5 13 -18 46 -25 46 -10 0 16 -56 61 -98 77 -23 10 -56
15 -72 13 -24 -4 -27 -2 -19 9 20 23 92 16 135 -13 21 -15 45 -34 52 -43 11
-14 12 -13 3 6 -13 26 -52 55 -105 77 -38 16 -61 17 -121 9z m103 -100 c-10
-2 -26 -2 -35 0 -10 3 -2 5 17 5 19 0 27 -2 18 -5z"/>
<path d="M1596 3106 c-24 -25 -33 -43 -32 -65 1 -17 4 -31 9 -31 4 0 7 -7 7
-16 0 -8 5 -12 11 -8 8 4 9 -1 4 -17 -7 -21 -6 -22 9 -10 9 7 16 28 16 45 l1
31 19 -24 c18 -21 23 -22 50 -11 16 7 36 23 45 37 13 20 19 22 31 12 11 -9 14
-7 14 14 0 20 -10 32 -43 52 -62 35 -100 33 -141 -9z m123 -50 c-12 -10 -59
-15 -59 -6 0 5 14 10 32 10 17 0 29 -2 27 -4z"/>
<path d="M3126 2964 c-3 -9 -6 -34 -6 -56 0 -40 0 -40 23 -25 20 13 27 13 48
1 40 -22 51 -18 47 19 -3 27 -10 35 -48 54 -55 27 -56 27 -64 7z"/>
<path d="M3080 2945 c7 -9 15 -13 17 -11 7 7 -7 26 -19 26 -6 0 -6 -6 2 -15z"/>
<path d="M3103 2812 c-30 -40 -33 -66 -8 -70 34 -4 43 10 36 56 l-6 44 -22
-30z"/>
<path d="M2024 2628 c-10 -36 -31 -42 -77 -23 -58 24 -121 29 -137 10 -11 -14
-10 -17 8 -21 12 -4 18 -12 16 -19 -4 -11 9 -13 60 -10 36 2 68 0 71 -4 8 -14
55 1 70 22 16 23 20 63 7 71 -5 3 -12 -9 -18 -26z"/>
<path d="M1753 2565 c16 -9 31 -14 35 -11 8 9 0 14 -33 21 l-30 6 28 -16z"/>
<path d="M1877 2308 c2 -5 -13 -8 -34 -8 -52 0 -81 -9 -88 -27 -7 -21 4 -31
15 -14 5 9 30 15 67 17 259 11 307 14 311 19 3 2 -8 9 -23 15 -31 12 -256 10
-248 -2z"/>
<path d="M1888 2153 c7 -3 16 -2 19 1 4 3 -2 6 -13 5 -11 0 -14 -3 -6 -6z"/>
<path d="M3058 2143 c7 -3 16 -2 19 1 4 3 -2 6 -13 5 -11 0 -14 -3 -6 -6z"/>
<path d="M2723 1884 c0 -16 13 -19 21 -5 3 5 0 11 -7 14 -8 3 -14 -1 -14 -9z"/>
<path d="M2888 1733 c7 -3 16 -2 19 1 4 3 -2 6 -13 5 -11 0 -14 -3 -6 -6z"/>
<path d="M2940 1665 c-46 -18 -28 -18 35 -1 30 9 40 14 25 14 -14 0 -41 -6
-60 -13z"/>
<path d="M2958 1643 c6 -2 18 -2 25 0 6 3 1 5 -13 5 -14 0 -19 -2 -12 -5z"/>
<path d="M3068 1593 c6 -2 18 -2 25 0 6 3 1 5 -13 5 -14 0 -19 -2 -12 -5z"/>
<path d="M3038 1573 c7 -3 16 -2 19 1 4 3 -2 6 -13 5 -11 0 -14 -3 -6 -6z"/>
<path d="M2606 1715 c-11 -8 -15 -15 -10 -15 6 0 19 7 30 15 10 8 15 14 9 14
-5 0 -19 -6 -29 -14z"/>
<path d="M2848 1533 c7 -3 16 -2 19 1 4 3 -2 6 -13 5 -11 0 -14 -3 -6 -6z"/>
<path d="M2770 1520 c-11 -8 -7 -9 15 -4 37 8 45 14 19 14 -10 0 -26 -5 -34
-10z"/>
<path d="M2948 1493 c7 -3 16 -2 19 1 4 3 -2 6 -13 5 -11 0 -14 -3 -6 -6z"/>
<path d="M2938 1443 c7 -3 16 -2 19 1 4 3 -2 6 -13 5 -11 0 -14 -3 -6 -6z"/>
<path d="M2988 1413 c6 -2 18 -2 25 0 6 3 1 5 -13 5 -14 0 -19 -2 -12 -5z"/>
<path d="M2928 1383 c7 -3 16 -2 19 1 4 3 -2 6 -13 5 -11 0 -14 -3 -6 -6z"/>
<path d="M3005 1360 c3 -5 8 -10 11 -10 2 0 4 5 4 10 0 6 -5 10 -11 10 -5 0
-7 -4 -4 -10z"/>
<path d="M2085 1530 c-3 -6 1 -7 9 -4 18 7 21 14 7 14 -6 0 -13 -4 -16 -10z"/>
<path d="M1900 698 c0 -9 5 -20 10 -23 13 -8 13 5 0 25 -8 13 -10 13 -10 -2z"/>
<path d="M2478 453 c7 -3 16 -2 19 1 4 3 -2 6 -13 5 -11 0 -14 -3 -6 -6z"/>
<path d="M1725 350 c3 -5 8 -10 11 -10 2 0 4 5 4 10 0 6 -5 10 -11 10 -5 0 -7
-4 -4 -10z"/>
<path d="M1911 284 c0 -11 3 -14 6 -6 3 7 2 16 -1 19 -3 4 -6 -2 -5 -13z"/>
<path d="M600 4561 c0 -6 5 -13 10 -16 6 -3 10 1 10 9 0 9 -4 16 -10 16 -5 0
-10 -4 -10 -9z"/>
<path d="M605 4479 c-4 -6 -4 -13 -1 -16 8 -8 36 5 36 17 0 13 -27 13 -35 -1z"/>
<path d="M4530 3980 c0 -5 7 -10 15 -10 8 0 15 5 15 10 0 6 -7 10 -15 10 -8 0
-15 -4 -15 -10z"/>
<path d="M1731 1204 c0 -11 3 -14 6 -6 3 7 2 16 -1 19 -3 4 -6 -2 -5 -13z"/>
<path d="M1340 1095 c-8 -9 -8 -15 -2 -15 12 0 26 19 19 26 -2 2 -10 -2 -17
-11z"/>
<path d="M90 1080 c-8 -5 -10 -10 -5 -10 6 0 17 5 25 10 8 5 11 10 5 10 -5 0
-17 -5 -25 -10z"/>
<path d="M1278 993 c7 -3 16 -2 19 1 4 3 -2 6 -13 5 -11 0 -14 -3 -6 -6z"/>
<path d="M975 840 c-16 -7 -11 -9 20 -9 22 0 47 4 55 9 19 13 -46 13 -75 0z"/>
</g>
</svg>
